<svg xmlns="http://www.w3.org/2000/svg" viewBox="0 0 64 64">
  <defs>
    <linearGradient id="bg" x1="0" y1="0" x2="1" y2="1">
      <stop offset="0" stop-color="#02091f"/>
      <stop offset="1" stop-color="#061a4f"/>
    </linearGradient>
    <linearGradient id="blue" x1="0" y1="1" x2="1" y2="0">
      <stop offset="0" stop-color="#0057d8"/>
      <stop offset="1" stop-color="#18d3e6"/>
    </linearGradient>
  </defs>
  <rect width="64" height="64" rx="14" fill="url(#bg)"/>
  <path d="M10 40V22L32 9l22 13v27L32 61 10 49z" fill="#03133a" stroke="#dcecff" stroke-width="2.2"/>
  <path d="M14 39V25l18-10 18 10v21L32 56 14 46z" fill="none" stroke="#198eff" stroke-width="2.5"/>
  <rect x="20" y="34" width="8" height="13" rx="1.5" fill="url(#blue)"/>
  <rect x="31" y="27" width="8" height="20" rx="1.5" fill="url(#blue)"/>
  <rect x="42" y="17" width="8" height="30" rx="1.5" fill="url(#blue)"/>
  <path d="M13 45c16 3 31-3 42-19" fill="none" stroke="#f5b544" stroke-width="4.2" stroke-linecap="round"/>
  <path d="M13 45c16 3 31-3 42-19" fill="none" stroke="#fff1a6" stroke-width="1.4" stroke-linecap="round"/>
</svg>
